<svg width="190" height="54" viewBox="0 0 190 54" fill="none" xmlns="http://www.w3.org/2000/svg">
<rect width="190" height="54" rx="12" fill="#F6A903"/>
<path d="M80.888 28.474H75.776V34H74.012V20.986H81.86V22.606H75.776V26.872H80.888V28.474ZM84.7884 23.11C84.1764 23.11 83.6724 22.606 83.6724 21.994C83.6724 21.364 84.1764 20.878 84.7884 20.878C85.4004 20.878 85.9044 21.364 85.9044 21.994C85.9044 22.606 85.4004 23.11 84.7884 23.11ZM83.9604 34V25.198H85.6524V34H83.9604ZM90.0888 34H88.3968V20.752H90.0888V34ZM94.5596 34H92.8676V20.752H94.5596V34ZM101.1 34.216C98.5083 34.216 96.7263 32.344 96.7263 29.608C96.7263 26.854 98.4723 24.946 101.028 24.946C103.53 24.946 105.168 26.674 105.168 29.284V29.914L98.3643 29.932C98.4903 31.786 99.4623 32.812 101.136 32.812C102.45 32.812 103.314 32.272 103.602 31.264H105.186C104.754 33.154 103.278 34.216 101.1 34.216ZM101.028 26.368C99.5523 26.368 98.6163 27.25 98.4003 28.798H103.476C103.476 27.34 102.522 26.368 101.028 26.368ZM110.838 34.216C108.282 34.216 106.734 32.308 106.734 29.626C106.734 26.926 108.3 24.946 110.91 24.946C112.26 24.946 113.394 25.54 113.988 26.62V20.752H115.662V34H114.15L114.006 32.398C113.43 33.604 112.242 34.216 110.838 34.216ZM111.18 32.686C112.908 32.686 113.97 31.408 113.97 29.572C113.97 27.772 112.908 26.476 111.18 26.476C109.452 26.476 108.444 27.772 108.444 29.572C108.444 31.39 109.452 32.686 111.18 32.686Z" fill="white"/>
</svg>
